<svg xmlns="http://www.w3.org/2000/svg" xmlns:xlink="http://www.w3.org/1999/xlink" width="424" zoomAndPan="magnify" viewBox="0 0 318 200.249992" height="267" preserveAspectRatio="xMidYMid meet" version="1.0"><defs><clipPath id="f87d39724a"><path d="M 229.710938 15.324219 L 284.003906 15.324219 L 284.003906 30.570312 L 229.710938 30.570312 Z M 229.710938 15.324219 " clip-rule="nonzero"/></clipPath><clipPath id="a7ba06eb3e"><path d="M 229.710938 172.429688 L 284.003906 172.429688 L 284.003906 187.679688 L 229.710938 187.679688 Z M 229.710938 172.429688 " clip-rule="nonzero"/></clipPath><clipPath id="5c4febf933"><path d="M 37.945312 15.324219 L 92.238281 15.324219 L 92.238281 30.570312 L 37.945312 30.570312 Z M 37.945312 15.324219 " clip-rule="nonzero"/></clipPath><clipPath id="b4db52e33c"><path d="M 37.945312 172.429688 L 92.238281 172.429688 L 92.238281 187.679688 L 37.945312 187.679688 Z M 37.945312 172.429688 " clip-rule="nonzero"/></clipPath><clipPath id="83bcbda75d"><path d="M 0.59375 21.53125 L 317.40625 21.53125 L 317.40625 181 L 0.59375 181 Z M 0.59375 21.53125 " clip-rule="nonzero"/></clipPath><clipPath id="f88bd735bf"><path d="M 0.597656 150.695312 L 0.597656 51.417969 C 0.597656 43.492188 3.746094 35.890625 9.351562 30.285156 C 14.957031 24.679688 22.558594 21.53125 30.484375 21.53125 L 287.34375 21.53125 C 295.273438 21.53125 302.875 24.679688 308.480469 30.285156 C 314.085938 35.890625 317.234375 43.492188 317.234375 51.417969 L 317.234375 150.695312 C 317.234375 158.621094 314.085938 166.222656 308.480469 171.828125 C 302.875 177.433594 295.273438 180.582031 287.34375 180.582031 L 30.484375 180.582031 C 22.558594 180.582031 14.957031 177.433594 9.351562 171.828125 C 3.746094 166.222656 0.597656 158.621094 0.597656 150.695312 Z M 0.597656 150.695312 " clip-rule="nonzero"/></clipPath><clipPath id="cfaea0348e"><path d="M 65.089844 48.445312 L 167.707031 48.445312 L 167.707031 153.464844 L 65.089844 153.464844 Z M 65.089844 48.445312 " clip-rule="nonzero"/></clipPath><clipPath id="3b9365f54e"><path d="M 65.089844 138.519531 L 65.089844 63.597656 C 65.089844 59.632812 66.664062 55.832031 69.46875 53.03125 C 72.269531 50.226562 76.070312 48.652344 80.035156 48.652344 L 152.761719 48.652344 C 156.722656 48.652344 160.527344 50.226562 163.328125 53.03125 C 166.128906 55.832031 167.707031 59.632812 167.707031 63.597656 L 167.707031 138.519531 C 167.707031 142.484375 166.128906 146.285156 163.328125 149.089844 C 160.527344 151.890625 156.722656 153.464844 152.761719 153.464844 L 80.035156 153.464844 C 76.070312 153.464844 72.269531 151.890625 69.46875 149.089844 C 66.664062 146.285156 65.089844 142.484375 65.089844 138.519531 Z M 65.089844 138.519531 " clip-rule="nonzero"/></clipPath><clipPath id="5c7dae867c"><path d="M 227.808594 28.085938 L 304.035156 28.085938 L 304.035156 173.992188 L 227.808594 173.992188 Z M 227.808594 28.085938 " clip-rule="nonzero"/></clipPath><clipPath id="023207480c"><path d="M 227.808594 151.574219 L 227.808594 50.546875 C 227.808594 44.601562 230.171875 38.902344 234.375 34.699219 C 238.578125 30.492188 244.28125 28.132812 250.226562 28.132812 L 281.621094 28.132812 C 287.566406 28.132812 293.265625 30.492188 297.472656 34.699219 C 301.675781 38.902344 304.035156 44.601562 304.035156 50.546875 L 304.035156 151.574219 C 304.035156 157.519531 301.675781 163.222656 297.472656 167.425781 C 293.265625 171.628906 287.566406 173.992188 281.621094 173.992188 L 250.226562 173.992188 C 244.28125 173.992188 238.578125 171.628906 234.375 167.425781 C 230.171875 163.222656 227.808594 157.519531 227.808594 151.574219 Z M 227.808594 151.574219 " clip-rule="nonzero"/></clipPath><clipPath id="73b9d7c0b1"><path d="M 306.898438 114.460938 L 312.761719 114.460938 L 312.761719 162.996094 L 306.898438 162.996094 Z M 306.898438 114.460938 " clip-rule="nonzero"/></clipPath><clipPath id="5da97939af"><path d="M 306.898438 160.066406 L 306.898438 117.40625 C 306.898438 115.789062 308.210938 114.476562 309.828125 114.476562 C 311.449219 114.476562 312.761719 115.789062 312.761719 117.40625 L 312.761719 160.066406 C 312.761719 161.683594 311.449219 162.996094 309.828125 162.996094 C 308.210938 162.996094 306.898438 161.683594 306.898438 160.066406 Z M 306.898438 160.066406 " clip-rule="nonzero"/></clipPath><clipPath id="d6b017c16f"><path d="M 306.898438 39.113281 L 312.761719 39.113281 L 312.761719 87.648438 L 306.898438 87.648438 Z M 306.898438 39.113281 " clip-rule="nonzero"/></clipPath><clipPath id="7ad8b1a9c2"><path d="M 306.898438 84.714844 L 306.898438 42.058594 C 306.898438 40.4375 308.210938 39.125 309.828125 39.125 C 311.449219 39.125 312.761719 40.4375 312.761719 42.058594 L 312.761719 84.714844 C 312.761719 86.335938 311.449219 87.648438 309.828125 87.648438 C 308.210938 87.648438 306.898438 86.335938 306.898438 84.714844 Z M 306.898438 84.714844 " clip-rule="nonzero"/></clipPath><clipPath id="5470dcdc13"><path d="M 192 172 L 205 172 L 205 199 L 192 199 Z M 192 172 " clip-rule="nonzero"/></clipPath><clipPath id="6b26a92b58"><path d="M 190.105469 196.65625 L 197.1875 171.101562 L 206.628906 173.71875 L 199.542969 199.273438 Z M 190.105469 196.65625 " clip-rule="nonzero"/></clipPath><clipPath id="b33d2a91bd"><path d="M 193.640625 183.890625 C 191.6875 190.941406 192.21875 197.242188 194.824219 197.964844 C 197.429688 198.6875 201.128906 193.558594 203.082031 186.507812 C 205.035156 179.460938 204.507812 173.160156 201.898438 172.4375 C 199.292969 171.714844 195.59375 176.84375 193.640625 183.890625 Z M 193.640625 183.890625 " clip-rule="nonzero"/></clipPath><clipPath id="5b369a3158"><path d="M 192 1 L 205 1 L 205 27 L 192 27 Z M 192 1 " clip-rule="nonzero"/></clipPath><clipPath id="2376b5453b"><path d="M 197.167969 28.128906 L 190.179688 2.546875 L 199.628906 -0.03125 L 206.617188 25.546875 Z M 197.167969 28.128906 " clip-rule="nonzero"/></clipPath><clipPath id="8caae09d4a"><path d="M 193.675781 15.351562 C 195.605469 22.410156 199.28125 27.550781 201.890625 26.839844 C 204.5 26.125 205.054688 19.828125 203.128906 12.769531 C 201.199219 5.714844 197.523438 0.574219 194.914062 1.285156 C 192.304688 1.996094 191.75 8.296875 193.675781 15.351562 Z M 193.675781 15.351562 " clip-rule="nonzero"/></clipPath><clipPath id="b3ea0c5bc1"><path d="M 175.921875 31.917969 L 218.578125 31.917969 L 218.578125 171.226562 L 175.921875 171.226562 Z M 175.921875 31.917969 " clip-rule="nonzero"/></clipPath><clipPath id="063fd9f6eb"><path d="M 175.921875 79.21875 L 175.921875 123.777344 L 218.578125 171.074219 L 218.578125 31.917969 Z M 175.921875 79.21875 " clip-rule="nonzero"/></clipPath><clipPath id="5407afb78a"><path d="M 41.730469 29.847656 L 186.027344 29.847656 L 186.027344 45.523438 L 41.730469 45.523438 Z M 41.730469 29.847656 " clip-rule="nonzero"/></clipPath><clipPath id="e0fd9c4fbc"><path d="M 41.730469 158.238281 L 186.027344 158.238281 L 186.027344 173.914062 L 41.730469 173.914062 Z M 41.730469 158.238281 " clip-rule="nonzero"/></clipPath><clipPath id="2661f6d88a"><path d="M 14.628906 31.753906 L 57.285156 31.753906 L 57.285156 171.0625 L 14.628906 171.0625 Z M 14.628906 31.753906 " clip-rule="nonzero"/></clipPath><clipPath id="9d50d3a17f"><path d="M 57.285156 123.765625 L 57.285156 79.207031 L 14.628906 31.90625 L 14.628906 171.0625 Z M 57.285156 123.765625 " clip-rule="nonzero"/></clipPath></defs><g clip-path="url(#f87d39724a)"><path fill="#0b1541" d="M 284.003906 15.324219 L 284.003906 30.570312 L 229.683594 30.570312 L 229.683594 15.324219 Z M 284.003906 15.324219 " fill-opacity="1" fill-rule="nonzero"/></g><g clip-path="url(#a7ba06eb3e)"><path fill="#0b1541" d="M 284.003906 172.429688 L 284.003906 187.679688 L 229.683594 187.679688 L 229.683594 172.429688 Z M 284.003906 172.429688 " fill-opacity="1" fill-rule="nonzero"/></g><g clip-path="url(#5c4febf933)"><path fill="#0b1541" d="M 92.238281 15.324219 L 92.238281 30.570312 L 37.917969 30.570312 L 37.917969 15.324219 Z M 92.238281 15.324219 " fill-opacity="1" fill-rule="nonzero"/></g><g clip-path="url(#b4db52e33c)"><path fill="#0b1541" d="M 92.238281 172.429688 L 92.238281 187.679688 L 37.917969 187.679688 L 37.917969 172.429688 Z M 92.238281 172.429688 " fill-opacity="1" fill-rule="nonzero"/></g><g clip-path="url(#83bcbda75d)"><g clip-path="url(#f88bd735bf)"><path fill="#00bf63" d="M 0.597656 180.582031 L 0.597656 21.53125 L 317.457031 21.53125 L 317.457031 180.582031 Z M 0.597656 180.582031 " fill-opacity="1" fill-rule="nonzero"/></g></g><g clip-path="url(#cfaea0348e)"><g clip-path="url(#3b9365f54e)"><path fill="#7ed957" d="M 65.089844 153.464844 L 65.089844 48.847656 L 167.707031 48.847656 L 167.707031 153.464844 Z M 65.089844 153.464844 " fill-opacity="1" fill-rule="nonzero"/></g></g><g clip-path="url(#5c7dae867c)"><g clip-path="url(#023207480c)"><path fill="#c1ff72" d="M 227.808594 173.992188 L 227.808594 28.085938 L 304.035156 28.085938 L 304.035156 173.992188 Z M 227.808594 173.992188 " fill-opacity="1" fill-rule="nonzero"/></g></g><g clip-path="url(#73b9d7c0b1)"><g clip-path="url(#5da97939af)"><path fill="#eaea28" d="M 306.898438 162.996094 L 306.898438 114.484375 L 312.761719 114.484375 L 312.761719 162.996094 Z M 306.898438 162.996094 " fill-opacity="1" fill-rule="nonzero"/></g></g><g clip-path="url(#d6b017c16f)"><g clip-path="url(#7ad8b1a9c2)"><path fill="#eaea28" d="M 306.898438 87.648438 L 306.898438 39.136719 L 312.761719 39.136719 L 312.761719 87.648438 Z M 306.898438 87.648438 " fill-opacity="1" fill-rule="nonzero"/></g></g><g clip-path="url(#5470dcdc13)"><g clip-path="url(#6b26a92b58)"><g clip-path="url(#b33d2a91bd)"><path fill="#000000" d="M 190.105469 196.65625 L 197.175781 171.136719 L 206.617188 173.753906 L 199.542969 199.273438 Z M 190.105469 196.65625 " fill-opacity="1" fill-rule="nonzero"/></g></g></g><g clip-path="url(#5b369a3158)"><g clip-path="url(#2376b5453b)"><g clip-path="url(#8caae09d4a)"><path fill="#000000" d="M 197.167969 28.128906 L 190.191406 2.585938 L 199.640625 0.00390625 L 206.617188 25.546875 Z M 197.167969 28.128906 " fill-opacity="1" fill-rule="nonzero"/></g></g></g><g clip-path="url(#b3ea0c5bc1)"><g clip-path="url(#063fd9f6eb)"><path fill="#c1ff72" d="M 218.578125 31.917969 L 218.578125 171.0625 L 175.921875 171.0625 L 175.921875 31.917969 Z M 218.578125 31.917969 " fill-opacity="1" fill-rule="nonzero"/></g></g><g clip-path="url(#5407afb78a)"><path fill="#c1ff72" d="M 186.027344 29.847656 L 186.027344 45.523438 L 41.726562 45.523438 L 41.726562 29.847656 Z M 186.027344 29.847656 " fill-opacity="1" fill-rule="nonzero"/></g><g clip-path="url(#e0fd9c4fbc)"><path fill="#c1ff72" d="M 186.027344 158.238281 L 186.027344 173.914062 L 41.726562 173.914062 L 41.726562 158.238281 Z M 186.027344 158.238281 " fill-opacity="1" fill-rule="nonzero"/></g><g clip-path="url(#2661f6d88a)"><g clip-path="url(#9d50d3a17f)"><path fill="#c1ff72" d="M 14.628906 171.0625 L 14.628906 31.921875 L 57.285156 31.921875 L 57.285156 171.0625 Z M 14.628906 171.0625 " fill-opacity="1" fill-rule="nonzero"/></g></g></svg>